<svg xmlns="http://www.w3.org/2000/svg" height="1024" preserveAspectRatio="none" style="display: block;" version="1.1" viewBox="0 0 2048 2048" width="1024">
<defs>
	<linearGradient gradientUnits="userSpaceOnUse" id="Gradient1" x1="919.503" x2="997.206" y1="887.393" y2="863.368">
		<stop class="stop0" offset="0" stop-color="rgb(136,206,115)" stop-opacity="1"></stop>
		<stop class="stop1" offset="1" stop-color="rgb(52,208,152)" stop-opacity="1"></stop>
	</linearGradient>
</defs>
<path d="M 0 0 L 2048 0 L 2048 2048 L 0 2048 L 0 0 z" fill="rgb(0,0,0)" transform="translate(0,0)"></path>
<path d="M 1312.47 736.405 L 1314.21 738.207 C 1302.48 761.648 1292.37 785.83 1280.16 809.337 C 1314.6 854.464 1332.49 881.792 1349.03 936.837 C 1335.84 933.596 1332.03 934.559 1319.15 937.625 C 1305.85 902.605 1289.55 868.788 1265.66 839.541 C 1263.33 843.966 1260.69 848.085 1259.9 852.939 C 1261.4 855.714 1261.14 854.738 1261.71 857.732 C 1258.29 859.255 1253.36 860.969 1254.06 865.3 C 1257.57 866.552 1263.22 865.008 1267.16 864.314 C 1365.3 992.675 1323.83 1180.87 1193.01 1269.4 C 1156.78 1294.2 1115.67 1310.99 1072.44 1318.65 C 1065.2 1320 1050.91 1324.5 1046.63 1317.55 C 1045.71 1308.01 1051.25 1300.61 1056.79 1293.46 C 1085.55 1288.09 1106.04 1283.46 1133.19 1270.68 C 1197.52 1240.41 1250.8 1187.92 1275.15 1120.42 C 1298.16 1057.25 1296 987.655 1269.12 926.033 C 1261.61 908.455 1253.12 896.924 1245.48 880.777 C 1242.94 885.257 1240.51 890.247 1238.15 894.863 C 1260.91 926.178 1271.31 962.593 1276.66 1000.5 C 1263.98 994.783 1261.68 994.173 1248.32 997.184 C 1243.12 969.659 1237.53 950.582 1223.74 926.372 C 1219.05 934.983 1213.64 943.596 1208.53 952.001 C 1212.44 950.083 1217.12 948.224 1221.17 946.494 C 1240.11 985.447 1243.79 1048.06 1231 1089.2 C 1213.68 1144.9 1176.3 1189.46 1125.45 1217.11 C 1103.18 1192.92 1123.06 1190.15 1140.25 1175.69 C 1205.86 1120.51 1221.67 1052.28 1201.01 972.063 C 1198.13 976.677 1195.34 981.34 1192.63 986.051 C 1205.23 1039.71 1198.31 1077.12 1170.9 1123.43 C 1163.82 1114.05 1158.88 1111.37 1149.25 1104.76 C 1162.41 1083.18 1170.94 1053.93 1171.19 1028.57 C 1165.89 1037.59 1159.21 1050.43 1156.03 1060.36 C 1144.72 1095.64 1122.15 1121.98 1104.78 1153.84 C 1121.54 1142.63 1133.91 1126.86 1145.87 1110.99 C 1156.73 1115.98 1161.11 1118.69 1167.46 1129.17 C 1138.42 1166.32 1121.4 1179.59 1078.63 1197.83 C 1074.59 1203.4 1073.29 1206.05 1070.21 1212.16 C 1084.83 1208.62 1097.59 1203.07 1110.88 1196.2 C 1111.95 1208.73 1113.19 1210.91 1122.01 1219.86 C 1092.25 1235.15 1077.83 1239.87 1044.78 1243.28 C 1080.85 1186.34 1113.03 1124.14 1145.14 1064.81 C 1158.18 1040.7 1169.77 1012.88 1182.19 988.027 C 1224.09 903.371 1267.53 819.483 1312.47 736.405 z" fill="rgb(41,206,159)" transform="translate(0,0)"></path>
<path d="M 771.136 1049.09 C 784.363 1048.55 787.417 1048.94 800.157 1052.32 C 809.256 1111.04 841.224 1163.77 889.08 1199 C 911.291 1215.63 928.695 1224.03 953.586 1234.67 C 954.199 1230.86 954.993 1226.58 955.379 1222.79 C 933.965 1213.09 904.399 1198.94 887.093 1183 C 892.936 1172.92 898.129 1167.72 908.358 1161.77 C 927.586 1175.57 940.205 1185.22 963.408 1192.38 L 966.072 1182.08 C 959.56 1179.56 955.157 1178.17 949.439 1174.13 C 951.893 1165.41 958.025 1149.72 970.017 1153.55 C 975.092 1159.17 972.433 1163.85 971.381 1170.5 C 965.807 1205.71 957.327 1239.98 950.259 1274.76 C 940.764 1321.48 931.353 1367.31 920.711 1413.79 L 918.967 1412.88 L 923.881 1383.69 C 891.194 1372.45 869.84 1364.84 839.715 1347.34 C 844.892 1336.72 849.058 1332.34 859.014 1326.01 C 884.825 1339.87 900.477 1346.32 928.134 1356.18 L 930.994 1343.82 C 920.795 1340.2 902.642 1334.22 893.543 1329.24 C 897.38 1318.57 899.356 1313.61 910.314 1308.37 C 911.383 1307.87 912.462 1307.38 913.552 1306.92 C 921.218 1309.94 929.058 1312.9 936.522 1316.35 C 938.946 1305.01 942.392 1290.68 944.144 1279.48 C 937.734 1286.48 934.132 1292.36 929.117 1300.43 C 878.353 1280.63 846.409 1260.29 808.367 1220.3 C 817.261 1211.12 822.469 1210.43 834.721 1207.38 C 875.228 1243.68 894.78 1254.62 944.867 1275.8 L 947.803 1262.96 C 851.756 1233.26 784.028 1148.13 771.136 1049.09 z" fill="rgb(251,180,67)" transform="translate(0,0)"></path>
<path d="M 1308.99 782.68 C 1309.82 782.872 1310.38 782.868 1310.98 783.551 C 1435.77 926.283 1429.57 1151.39 1295.42 1285.81 C 1286.41 1294.84 1244.74 1334.58 1234.82 1335.36 L 1233.28 1333.58 C 1228.78 1325.82 1225.99 1320.04 1223.13 1311.6 C 1240.89 1299 1257.63 1285.02 1273.17 1269.77 C 1337.03 1206.12 1373.05 1119.74 1373.32 1029.58 C 1373.75 948.059 1344.89 859.695 1286.95 801.179 C 1295.1 792.849 1299.16 788.873 1308.99 782.68 z" fill="rgb(41,206,159)" transform="translate(0,0)"></path>
<path d="M 690.859 851.569 C 692.963 851.92 695.049 852.372 697.109 852.924 C 706.896 855.614 709.21 860.323 714.022 868.537 C 706.815 882.581 700.566 897.096 695.318 911.983 C 670.489 983.521 672.308 1068.97 698.352 1139.5 C 705.639 1159.23 712.406 1173.56 721.573 1192.58 C 717.557 1192.8 713.841 1193.24 709.864 1193.7 C 702.917 1195.5 699.198 1196.78 692.493 1199.39 C 632.857 1099.2 633.61 952.896 690.859 851.569 z" fill="rgb(251,180,67)" transform="translate(0,0)"></path>
<path d="M 1007.37 688.465 C 1009.28 688.146 1008.38 687.988 1010.07 688.947 C 1003.08 699.956 1001.03 701.688 1002.88 715.628 C 990.156 716.753 977.513 718.616 965.011 721.209 C 884.201 737.842 813.407 786.118 768.414 855.273 L 762.174 845.803 C 757.626 840.268 754.707 838.277 748.825 834.767 C 754.04 827.745 759.359 820.37 764.866 813.596 C 823.911 740.961 913.164 693.274 1007.37 688.465 z" fill="rgb(251,180,67)" transform="translate(0,0)"></path>
<path d="M 1214.46 1316.76 L 1216.16 1317.45 C 1219.54 1327.44 1222.56 1332.42 1229.48 1340.16 C 1141.11 1390.49 1068.11 1408.18 965.77 1397.75 C 960.781 1397.31 955.299 1396.58 950.281 1396.01 C 954.737 1387.65 959.387 1380.02 964.284 1371.93 C 1051.56 1383.4 1140.1 1363.88 1214.46 1316.76 z" fill="rgb(41,206,159)" transform="translate(0,0)"></path>
<path d="M 1125.98 813.287 C 1131.41 802.653 1134.53 798.997 1145.38 793.807 C 1163.84 803.93 1175.8 811.868 1193.15 823.833 C 1196.76 821.7 1200.18 818.998 1203.56 816.486 L 1207.52 817.662 C 1181.78 844.01 1146.36 874.531 1118.32 899.195 C 1106.34 891.488 1097.6 887.239 1084.84 881.356 C 1090.13 868.301 1092.03 863.887 1106.18 859.985 C 1117.43 865.509 1123.36 868.914 1133.34 876.463 C 1136.28 874.137 1139.81 870.888 1142.71 868.376 C 1102.51 839.181 1064.08 830.35 1015.32 830.95 C 1013.3 817.93 1014.73 814.27 1022.16 803.704 C 1073.19 800.565 1122.79 821.397 1163.87 850.024 C 1167.14 847.16 1169.29 844.76 1172.22 841.573 C 1155.39 830.164 1144.27 822.192 1125.98 813.287 z" fill="rgb(41,206,159)" transform="translate(0,0)"></path>
<path d="M 889.973 761.219 C 892.456 769.576 886.034 773.496 894.73 789.619 C 827.308 828.901 786.781 884.972 765.307 959.24 C 761.219 955.84 758.707 954.474 754.187 951.797 C 749.146 949.836 745.113 949.022 739.886 947.792 C 764.129 863.436 813.427 803.633 889.973 761.219 z" fill="rgb(251,180,67)" transform="translate(0,0)"></path>
<path d="M 1276.02 1204.38 C 1286.38 1207.34 1292.6 1213.42 1299.79 1220.93 C 1249.37 1283.86 1199.26 1322.29 1121.26 1346.46 L 1105.81 1350.86 C 1103.32 1343.81 1102.59 1341.05 1101.23 1333.7 L 1104.77 1323.79 C 1180.96 1298.27 1226.96 1269.63 1276.02 1204.38 z" fill="rgb(41,206,159)" transform="translate(0,0)"></path>
<path d="M 1013.79 648.442 C 1064.08 646.569 1114.22 654.918 1161.19 672.982 C 1160.13 673.524 1159.07 674.086 1158.03 674.668 C 1147.21 680.705 1145.05 683.914 1141.78 695.323 C 1120.23 687.112 1103.59 682.944 1081.04 679.272 C 1031.18 671.266 980.155 674.802 931.882 689.609 C 925.738 658.923 943.457 656.164 969.137 652.304 C 984.239 650.034 998.55 649.15 1013.79 648.442 z" fill="rgb(251,180,67)" transform="translate(0,0)"></path>
<path d="M 1001.29 727.391 C 1033.83 722.916 1083.33 731.326 1115.46 739.904 C 1105.35 747.419 1102.41 750.408 1098.34 762.782 C 1063.64 753.984 1027.6 751.806 992.088 756.362 C 957.864 760.477 932.206 769.725 902.186 784.801 C 898.841 786.481 895.719 775.297 895.581 772.478 C 894.522 750.894 921.928 745.99 937.581 740.444 C 958.271 734.013 979.951 729.725 1001.29 727.391 z" fill="rgb(251,180,67)" transform="translate(0,0)"></path>
<path d="M 1020.95 687.06 C 1075.1 686.474 1130.29 700.037 1177.94 724.989 C 1188.12 730.322 1203.39 737.436 1211.58 745.295 L 1212.31 747.462 C 1202.2 753.458 1200.67 756.097 1195.98 766.18 C 1195.05 765.483 1194.44 764.994 1193.57 764.221 C 1184.45 760.342 1174.39 752.797 1165.26 748.168 C 1127.42 728.996 1086.9 718.322 1044.64 715.449 C 1038.04 715.001 1013.7 715.664 1009.88 713.756 C 1003.8 704.758 1014.07 692.48 1020.95 687.06 z" fill="rgb(251,180,67)" transform="translate(0,0)"></path>
<path d="M 1193.57 764.221 C 1198.16 753.423 1200.53 750.515 1211.58 745.295 L 1212.31 747.462 C 1202.2 753.458 1200.67 756.097 1195.98 766.18 C 1195.05 765.483 1194.44 764.994 1193.57 764.221 z" fill="rgb(11,8,4)" transform="translate(0,0)"></path>
<path d="M 714.649 1199.28 L 725.411 1199.12 C 763.307 1256.31 792.04 1286.01 851.623 1321.64 C 843.116 1328.6 838.076 1332.46 833.689 1342.68 C 829.526 1343.08 812.271 1329.94 808.228 1327.13 C 764.599 1296.79 722.642 1253.56 697.318 1206.53 C 703.854 1202.05 706.912 1200.72 714.649 1199.28 z" fill="rgb(251,180,67)" transform="translate(0,0)"></path>
<path d="M 1003.98 767.386 C 1059.76 763.509 1089.94 770.62 1141.16 791.493 C 1129.46 798.311 1127.1 799.647 1121.26 811.781 C 1105.46 805.131 1089.1 799.91 1072.36 796.182 C 1029.16 787.629 984.388 791.988 943.644 808.716 C 936.126 797.623 936.888 793.815 940.643 781.524 C 961.276 772.974 982.026 769.805 1003.98 767.386 z" fill="rgb(41,206,159)" transform="translate(0,0)"></path>
<path d="M 850.506 1008.45 C 861.362 1009.73 868.469 1014.14 877.163 1020.02 C 883.037 1084.84 906.834 1117.76 962.434 1150.73 C 956.069 1153.94 954.457 1154.6 949.088 1159.36 C 946.607 1163.96 945.785 1167.51 944.309 1172.49 C 927.141 1163.08 911.468 1151.18 897.804 1137.16 C 861.575 1099.44 849.565 1059.76 850.506 1008.45 z" fill="rgb(251,180,67)" transform="translate(0,0)"></path>
<path d="M 1012.61 804.401 C 1013.9 804.263 1013.17 804.2 1014.75 804.952 C 1009.27 817.086 1007.59 816.863 1010.18 831.506 C 1003.41 832.152 996.684 833.16 990.022 834.525 C 938.847 845.32 895.978 876.788 867.598 920.387 L 859.958 912.474 C 856.023 908.531 850.77 904.428 846.424 900.818 C 850.393 895.577 854.517 890.455 858.791 885.459 C 897.56 839.921 952.705 809.363 1012.61 804.401 z" fill="rgb(41,206,159)" transform="translate(0,0)"></path>
<path d="M 1239.52 1102.59 C 1253.04 1103.71 1256.67 1107.89 1263.61 1118.62 C 1243.28 1168.74 1207.97 1211.35 1162.49 1240.62 L 1153.4 1246.41 C 1146.68 1236.93 1144.61 1234.02 1141.46 1222.96 C 1190.66 1188.26 1215.98 1157.88 1239.52 1102.59 z" fill="rgb(41,206,159)" transform="translate(0,0)"></path>
<path d="M 745.653 839.761 C 756.077 844.903 759.25 851.536 764.278 861.511 C 731.746 915.637 722.846 950.683 717.826 1012.1 L 716.782 1012.63 L 714.798 1010.37 C 707.058 1001.14 702.404 1001.38 690.664 999.743 C 693.669 947.991 713.313 880.972 745.653 839.761 z" fill="rgb(251,180,67)" transform="translate(0,0)"></path>
<path d="M 817.422 876.508 C 826.47 883.028 829.414 888.256 834.499 897.66 C 811.639 936.7 800.401 968.26 798.432 1014.12 C 798.103 1021.78 799.493 1039.92 798.053 1043.78 C 795.067 1045.48 795.173 1044.68 790.712 1043.87 C 783.275 1043.06 778.269 1043.27 770.746 1043.48 C 766.774 984.247 781.77 924.458 817.422 876.508 z" fill="rgb(251,180,67)" transform="translate(0,0)"></path>
<path d="M 810.425 1026.63 C 824.568 1026.75 830.185 1027.81 839.341 1039.4 C 845.986 1087.13 866.449 1126.42 903.386 1157.87 C 899.622 1160.94 895.909 1164.06 892.25 1167.25 C 888.281 1171.22 885.782 1174.69 882.43 1179.13 L 881.124 1177.99 C 836.591 1138.52 813.52 1085.52 810.425 1026.63 z" fill="rgb(251,180,67)" transform="translate(0,0)"></path>
<path d="M 808.819 719.024 C 808.608 721.18 808.474 723.344 808.417 725.51 C 808.224 735.558 810.701 739.173 817.351 746.041 C 776.07 777.905 741.703 817.835 716.34 863.4 L 710.442 854.843 C 706.024 850.529 698.861 849.017 692.935 847.3 C 724.664 791.713 756.326 756.502 808.819 719.024 z" fill="rgb(251,180,67)" transform="translate(0,0)"></path>
<path d="M 1162.4 675.924 C 1185.84 674.783 1261.17 729.006 1279.99 746.274 L 1261.65 763.028 C 1260.78 763.917 1260.37 763.89 1259.11 764.441 C 1254.7 762.217 1251.24 758.984 1247.34 755.993 C 1238.96 749.562 1230.63 742.714 1222.08 736.522 C 1199.21 719.938 1172.43 710.133 1148.11 696.504 C 1146.97 695.867 1146.99 690.661 1147.72 689.719 C 1150.66 682.605 1155.36 679.659 1162.4 675.924 z" fill="rgb(251,180,67)" transform="translate(0,0)"></path>
<path d="M 737.88 954.804 C 749.369 955.035 754.552 959.126 763.553 965.509 C 755.962 1006.14 755.573 1046.3 765.984 1086.45 C 766.892 1089.95 769.154 1096.51 767.683 1099.04 C 757.358 1096.18 750.143 1095.73 739.746 1098.19 C 728.723 1051.1 728.086 1002.17 737.88 954.804 z" fill="rgb(251,180,67)" transform="translate(0,0)"></path>
<path d="M 690.038 1004.76 C 704.469 1004.98 708.721 1008.85 717.186 1019.33 C 719.701 1047.82 719.748 1073.58 727.831 1102.02 C 731.396 1114.57 736.609 1126.15 740.453 1138.83 C 738.625 1140.88 736.776 1140.44 733.247 1141 C 725.056 1142.29 721.531 1144.37 714.528 1148.3 C 695.039 1106.64 689.792 1050.01 690.038 1004.76 z" fill="rgb(251,180,67)" transform="translate(0,0)"></path>
<path d="M 1336.01 941.371 C 1340.93 940.926 1345.67 942.611 1350.43 943.923 C 1363.53 987.318 1361.72 1038.32 1357.29 1082.82 C 1355.12 1082.13 1351.84 1080.73 1349.62 1079.86 C 1342.32 1076.86 1337.86 1075.65 1330.15 1073.61 C 1335.65 1025.47 1335.02 991.501 1320.75 944.373 C 1325.93 942.907 1330.72 942.23 1336.01 941.371 z" fill="rgb(41,206,159)" transform="translate(0,0)"></path>
<path d="M 1328.93 1080.25 C 1337.8 1082.92 1347.41 1086.84 1355.8 1090.69 C 1345.78 1136.57 1329.58 1173.43 1305.05 1213.1 L 1303.91 1213.65 C 1301.67 1212.13 1298.88 1208.99 1296.69 1206.99 C 1291.52 1202.26 1286.54 1199.96 1280.24 1197.08 C 1306.19 1166.06 1321.2 1119.61 1328.93 1080.25 z" fill="rgb(41,206,159)" transform="translate(0,0)"></path>
<path d="M 931.565 784.969 C 932.841 785.697 932.186 785.15 933.202 786.934 C 931.062 798.808 932.835 801.031 939.016 811.005 C 891.694 833.574 872.294 851.031 840.113 890.279 C 838.222 889.712 837.123 886.816 835.738 884.567 C 831.196 878.485 826.77 875.425 820.744 871.155 C 851.314 829.964 886.118 806.498 931.565 784.969 z" fill="rgb(251,180,67)" transform="translate(0,0)"></path>
<path d="M 744.044 1102.44 C 756.503 1100.88 759.347 1102.74 771.613 1106.62 C 787.532 1148.61 801.245 1170.5 831.365 1203.7 C 825.46 1204.79 822.047 1205.63 816.319 1207.26 C 809.808 1210.46 809.361 1211.62 805.907 1218.26 C 805.181 1217.46 804.462 1216.65 803.751 1215.84 C 794.105 1204.79 785.191 1193.13 777.066 1180.91 C 769.183 1168.81 741.072 1116.98 741.851 1103.86 L 744.044 1102.44 z" fill="rgb(251,180,67)" transform="translate(0,0)"></path>
<path d="M 808.34 1238.94 C 811.726 1240.26 833.3 1261.24 838.752 1265.2 C 859.454 1280.37 881.579 1293.5 904.816 1304.39 C 898.211 1308.96 889.471 1315.81 886.943 1323.59 C 886.499 1324.96 886.906 1324.26 885.226 1325.39 C 848.883 1307.52 813.279 1285.25 785.553 1255.33 C 793.23 1245.14 796.492 1243.04 808.34 1238.94 z" fill="rgb(251,180,67)" transform="translate(0,0)"></path>
<path d="M 733.944 1144.21 C 746.036 1143.37 746.56 1148.54 751.66 1159.54 C 765.446 1189.25 783.936 1211.27 805.675 1235.33 C 795.47 1237.56 792.786 1238.85 785.385 1246.14 C 783.704 1247.98 782.996 1248.58 781.062 1250.18 C 780.788 1250.08 780.515 1249.99 780.242 1249.9 C 756.206 1228.74 725.257 1176.67 715.775 1150.96 C 722.662 1147.37 726.535 1146.09 733.944 1144.21 z" fill="rgb(251,180,67)" transform="translate(0,0)"></path>
<path d="M 923.662 663.01 L 925.323 662.882 L 926.112 663.826 C 922.937 674.693 921.602 680.57 924.906 691.227 C 887.038 702.257 854.247 721.035 821.68 742.635 C 812.18 730.991 812.584 727.258 816.769 713.345 C 851.907 688.36 883.33 676.15 923.662 663.01 z" fill="rgb(251,180,67)" transform="translate(0,0)"></path>
<path d="M 891.67 993.596 C 922.842 994.673 913.91 1000.67 915.289 1025.82 C 916.991 1056.87 932.956 1081.87 955.97 1101.76 C 955.694 1102.82 955.856 1102.87 956.174 1104.16 C 953.626 1107.86 951.596 1108.38 948.669 1111.67 C 946.267 1114.37 944.519 1117.56 942.184 1120.58 L 939.273 1120.61 C 936.47 1120.19 921.97 1104.25 919.329 1100.93 C 892.769 1067.5 887.855 1034.6 891.67 993.596 z" fill="rgb(251,180,67)" transform="translate(0,0)"></path>
<path d="M 955.97 1101.76 C 955.694 1102.82 955.856 1102.87 956.174 1104.16 C 953.626 1107.86 951.596 1108.38 948.669 1111.67 C 946.267 1114.37 944.519 1117.56 942.184 1120.58 L 939.273 1120.61 C 947.243 1108.56 943.544 1111.52 955.97 1101.76 z" fill="rgb(11,8,4)" transform="translate(0,0)"></path>
<path d="M 912.758 885.069 C 914.008 896.373 916.94 901.434 923.534 910.114 C 891.425 943.154 881.377 969.082 876.938 1013.48 C 873.612 1011.02 870.549 1009.42 866.973 1007.42 C 861.59 1005.35 856.36 1004.53 850.722 1003.45 C 859.833 951.729 873.04 922.057 912.758 885.069 z" fill="rgb(251,180,67)" transform="translate(0,0)"></path>
<path d="M 844.095 905.531 C 852.572 910.775 858.052 917.338 863.834 925.227 C 848.5 955.029 839.726 983.708 839.086 1017.34 C 839.032 1020.17 839.373 1028.31 838.08 1030.08 L 833.401 1026.11 C 824.028 1021.86 820.183 1021.45 810.163 1020.82 C 812.431 976.391 820.935 944.084 844.095 905.531 z" fill="rgb(251,180,67)" transform="translate(0,0)"></path>
<path d="M 1135.75 1225.89 C 1136.31 1226.39 1146.05 1244.43 1149.89 1249.04 C 1108.51 1271.84 1082.62 1278.38 1036.44 1281.9 L 1020.78 1282.19 C 1027.12 1272.52 1031.36 1264.95 1036.75 1254.87 C 1076.57 1253.83 1101.62 1244.87 1135.75 1225.89 z" fill="rgb(41,206,159)" transform="translate(0,0)"></path>
<path d="M 1094.93 1326.22 C 1095.89 1326.27 1095.28 1326.16 1096.6 1327 C 1094.6 1337.9 1096.38 1342.58 1098.75 1353.39 C 1054.09 1362.06 1022.97 1364.35 977.756 1360.9 L 974.47 1360.62 L 973.879 1359.06 C 976.307 1352.82 984.703 1340.46 988.717 1334.15 C 1024.32 1337.33 1060.2 1334.65 1094.93 1326.22 z" fill="rgb(41,206,159)" transform="translate(0,0)"></path>
<path d="M 1120.22 742.264 C 1155.42 755.375 1196.55 776.119 1224.74 801.652 C 1219.18 807.178 1213.43 812.518 1207.52 817.662 L 1203.56 816.486 C 1164.94 790.435 1148.25 780.229 1104.04 764.124 C 1108.07 751.923 1109.72 749.511 1120.22 742.264 z" fill="rgb(41,206,159)" transform="translate(0,0)"></path>
<path d="M 950.91 903.083 C 990.302 881.581 1022.21 877.243 1066.35 886.008 L 1070.27 886.969 L 1070.74 888.13 C 1068 890.137 1066.81 890.646 1063.82 892.083 C 1057.8 899.044 1056.27 902.437 1053.03 910.644 C 1030.01 904.722 1001.03 905.725 979.615 916.761 C 975.78 918.738 960.643 927.6 957.894 928.195 C 950.817 923.408 951.325 910.852 950.91 903.083 z" fill="rgb(41,206,159)" transform="translate(0,0)"></path>
<path d="M 1258.67 1000.21 C 1265.87 999.966 1271.29 1002.79 1277.66 1005.73 C 1280.75 1038.37 1277.52 1079.47 1265.76 1110.43 L 1264.58 1110.32 C 1257.19 1101.25 1253.1 1099.59 1242.16 1096.43 C 1247.62 1077.17 1251.21 1054.41 1251.14 1034.28 C 1251.11 1024.59 1248.75 1013.12 1249.51 1003.35 C 1251.68 1001.1 1255.43 1000.85 1258.67 1000.21 z" fill="rgb(41,206,159)" transform="translate(0,0)"></path>
<path d="M 1007.23 844.421 C 1032.35 837.608 1076.6 848.421 1101.57 856.592 C 1087.23 861.437 1085.67 865.781 1078.31 878.886 C 1060.72 873.453 1048.22 870.473 1029.56 870.279 C 1023.99 870.222 1013.28 871.118 1008.54 870.881 C 1001 868.224 1002.72 870.969 995.973 870.979 L 995.947 871.332 L 995.847 871.409 C 994.647 870.43 996.492 855.229 994.602 852.249 C 993.189 848.218 992.817 848.465 996.527 847.509 C 999.559 846.727 1005.74 846.91 1007.23 844.421 z" fill="rgb(41,206,159)" transform="translate(0,0)"></path>
<path d="M 919.107 879.919 L 919.889 879.31 C 938.14 864.907 961.507 853.875 984.013 848.253 C 989.483 846.887 1001.83 843.938 1007.23 844.421 C 1005.74 846.91 999.559 846.727 996.527 847.509 C 992.817 848.465 993.189 848.218 994.602 852.249 C 996.492 855.229 994.647 870.43 995.847 871.409 L 995.947 871.332 L 995.973 870.979 C 1002.72 870.969 1001 868.224 1008.54 870.881 C 972.315 878.57 958.098 882.086 928.386 906.655 C 923.286 900.384 918.445 894.51 918.819 886.012 L 919.107 879.919 z" fill="url(#Gradient1)" transform="translate(0,0)"></path>
<path d="M 945.785 907.896 C 948.189 910.216 946.297 913.541 947.415 917.916 C 949.003 924.126 951.474 927.371 955.026 932.504 C 933.278 953.473 922.367 967.975 916.727 997.524 C 912.378 994.521 913.903 994.677 908.53 992.032 C 902.071 990.306 898.826 990.013 892.316 989.242 C 902.467 955.055 917.679 930.736 945.785 907.896 z" fill="rgb(251,180,67)" transform="translate(0,0)"></path>
<path d="M 1212.31 747.462 C 1221.25 748.722 1243.19 768.157 1250.84 774.91 C 1244.17 781.109 1239.05 785.436 1232.58 792.001 C 1220.42 783.291 1208.52 774.37 1195.98 766.18 C 1200.67 756.097 1202.2 753.458 1212.31 747.462 z" fill="rgb(251,180,67)" transform="translate(0,0)"></path>
<path d="M 1049.37 1293.8 C 1040.98 1303.72 1041.35 1308.91 1041.01 1322.39 C 1030.93 1322.73 1020.84 1322.89 1010.75 1322.87 C 1005.5 1322.9 1000.24 1322.89 994.989 1322.85 C 1001.45 1313.65 1007.74 1304.33 1013.86 1294.9 C 1019.77 1294.85 1025.57 1294.87 1031.47 1294.58 C 1037.66 1294.16 1043.17 1293.98 1049.37 1293.8 z" fill="rgb(41,206,159)" transform="translate(0,0)"></path>
<path d="M 1073.36 890.846 C 1083.35 891.231 1096.76 898.023 1104.44 904.129 L 1107.43 906.542 C 1101.02 912.857 1096.38 917.705 1089.61 923.88 C 1089.11 924.286 1088.59 924.787 1088 925.055 C 1087.37 925.343 1061.84 912.473 1057.35 910.98 C 1061.95 899.997 1062.09 896.015 1073.36 890.846 z" fill="rgb(41,206,159)" transform="translate(0,0)"></path>
<path d="M 956.174 1104.16 C 961.402 1105 972.393 1112.74 978.8 1116.08 C 978.033 1119.86 977.391 1123.67 976.875 1127.49 C 976.254 1131.83 975.327 1136.12 974.725 1140.47 L 974.439 1142.42 C 968.332 1139.53 946.669 1129.25 942.521 1122.73 C 942.423 1122.11 942.324 1121.48 942.225 1120.86 C 942.211 1120.77 942.198 1120.67 942.184 1120.58 C 944.519 1117.56 946.267 1114.37 948.669 1111.67 C 951.596 1108.38 953.626 1107.86 956.174 1104.16 z" fill="rgb(251,180,67)" transform="translate(0,0)"></path>
<path d="M 1322.24 718.425 L 1323.15 720.229 C 1319.99 725.743 1317.55 732.327 1314.21 738.207 L 1312.47 736.405 C 1315.43 730.19 1318.84 724.396 1322.24 718.425 z" fill="rgb(24,130,114)" transform="translate(0,0)"></path>
<path d="M 918.967 1412.88 L 920.711 1413.79 C 919.699 1420.36 917.918 1426.62 916.859 1433.18 L 915.243 1430.18 C 916.478 1424.51 917.377 1418.33 918.967 1412.88 z" fill="rgb(159,108,46)" transform="translate(0,0)"></path>
<path d="M 1322.24 718.425 C 1326.17 704.717 1334.01 702.871 1323.34 719.916 L 1323.15 720.229 L 1322.24 718.425 z" fill="rgb(11,39,37)" transform="translate(0,0)"></path>
<path d="M 915.243 1430.18 L 916.859 1433.18 C 916.556 1434.58 915.466 1442.22 914.366 1442.69 C 913.206 1441.94 914.812 1431.79 915.243 1430.18 z" fill="rgb(88,61,32)" transform="translate(0,0)"></path>
<path d="M 912.856 1446.54 C 913.589 1447.4 914.861 1445.91 913.332 1448.83 C 912.128 1447.93 912.249 1447.92 912.856 1446.54 z" fill="rgb(11,8,4)" transform="translate(0,0)"></path>
<metadata><recraft-signature>{"signed_by": "recraft", "signature_b64": "b99qTpHlo6uhMIhxgfPNgiZtv/a6q2vr2QPvZxSNOcU4E3Xmf4tBB1ZXQ0OeDgsL0YuWqIOKMDAYBxOUEPt2DA==", "signing_algo": "Ed25519", "generation_timestamp": 1776392441, "identifier": "47b76204-6bbf-4f6b-a7f9-bd84abc77153"}</recraft-signature></metadata></svg>